<svg width="200" height="83" viewBox="0 0 200 83" fill="none" xmlns="http://www.w3.org/2000/svg">
<path d="M81.6098 46.4546C79.0338 46.4546 76.4882 45.9848 73.9729 45.0454C71.4575 44.1059 69.215 42.8028 67.2451 41.136L71.6091 35.4538C73.5486 37.0297 75.3366 38.1661 76.9731 38.8631C78.6095 39.5299 80.3521 39.8632 82.2007 39.8632C83.4129 39.8632 84.4433 39.742 85.2918 39.4995C86.1404 39.2571 86.7919 38.9086 87.2465 38.454C87.7011 37.9691 87.9284 37.4085 87.9284 36.7721C87.9284 35.8932 87.595 35.2114 86.9283 34.7265C86.2616 34.2416 85.1252 33.8628 83.519 33.59L76.5185 32.3627C73.9426 31.9081 71.9576 30.9232 70.5635 29.4079C69.1695 27.8927 68.4725 25.9683 68.4725 23.6348C68.4725 21.5741 68.9877 19.8012 70.018 18.3162C71.0787 16.8313 72.5788 15.6949 74.5184 14.9069C76.4882 14.119 78.8217 13.725 81.5188 13.725C83.8826 13.725 86.2616 14.1341 88.6557 14.9524C91.0498 15.7403 93.1257 16.8464 94.8834 18.2708L90.7468 24.0439C87.4738 21.5286 84.216 20.2709 80.9733 20.2709C79.9127 20.2709 78.9884 20.3922 78.2004 20.6346C77.4428 20.8467 76.8518 21.1649 76.4276 21.5892C76.0336 21.9832 75.8366 22.4681 75.8366 23.0439C75.8366 23.8318 76.1245 24.4379 76.7003 24.8622C77.3064 25.2864 78.2762 25.6198 79.6096 25.8622L86.201 26.9532C89.2618 27.4381 91.5801 28.4533 93.156 29.9989C94.7622 31.5444 95.5653 33.5446 95.5653 35.9993C95.5653 38.151 95.0046 40.0147 93.8833 41.5906C92.7621 43.1362 91.1559 44.3332 89.0648 45.1818C86.9738 46.0303 84.4887 46.4546 81.6098 46.4546ZM90.7372 46L103.784 14.1796H112.739L125.603 46H117.148L114.239 38.3176H101.829L98.8741 46H90.7372ZM104.193 32.0899H111.92L108.102 21.9074L104.193 32.0899ZM122.918 46V14.1796H130.737V39.0904H147.511V46H122.918ZM146.861 46V14.1796H171.954V20.9528H154.68V26.6805H166.09V33.2264H154.68V39.2268H172.136V46H146.861ZM183.465 46.4546C180.889 46.4546 178.344 45.9848 175.828 45.0454C173.313 44.1059 171.07 42.8028 169.101 41.136L173.465 35.4538C175.404 37.0297 177.192 38.1661 178.829 38.8631C180.465 39.5299 182.208 39.8632 184.056 39.8632C185.268 39.8632 186.299 39.742 187.147 39.4995C187.996 39.2571 188.647 38.9086 189.102 38.454C189.557 37.9691 189.784 37.4085 189.784 36.7721C189.784 35.8932 189.45 35.2114 188.784 34.7265C188.117 34.2416 186.981 33.8628 185.374 33.59L178.374 32.3627C175.798 31.9081 173.813 30.9232 172.419 29.4079C171.025 27.8927 170.328 25.9683 170.328 23.6348C170.328 21.5741 170.843 19.8012 171.874 18.3162C172.934 16.8313 174.434 15.6949 176.374 14.9069C178.344 14.119 180.677 13.725 183.374 13.725C185.738 13.725 188.117 14.1341 190.511 14.9524C192.905 15.7403 194.981 16.8464 196.739 18.2708L192.602 24.0439C189.329 21.5286 186.071 20.2709 182.829 20.2709C181.768 20.2709 180.844 20.3922 180.056 20.6346C179.298 20.8467 178.707 21.1649 178.283 21.5892C177.889 21.9832 177.692 22.4681 177.692 23.0439C177.692 23.8318 177.98 24.4379 178.556 24.8622C179.162 25.2864 180.132 25.6198 181.465 25.8622L188.056 26.9532C191.117 27.4381 193.436 28.4533 195.011 29.9989C196.618 31.5444 197.421 33.5446 197.421 35.9993C197.421 38.151 196.86 40.0147 195.739 41.5906C194.618 43.1362 193.011 44.3332 190.92 45.1818C188.829 46.0303 186.344 46.4546 183.465 46.4546Z" fill="white"/>
<path d="M75.9937 64.2145C74.9046 64.2145 73.8871 64.021 72.9414 63.6341C71.9956 63.2329 71.1644 62.6811 70.4479 61.979C69.7314 61.2625 69.1725 60.4385 68.7713 59.507C68.3844 58.5612 68.1909 57.5438 68.1909 56.4547C68.1909 55.3656 68.3844 54.3553 68.7713 53.4239C69.1725 52.4781 69.7314 51.6541 70.4479 50.9519C71.1644 50.2354 71.9956 49.6837 72.9414 49.2968C73.8871 48.8955 74.9046 48.6949 75.9937 48.6949C76.7818 48.6949 77.5342 48.7952 78.2507 48.9959C78.9815 49.1821 79.655 49.4616 80.2712 49.8342C80.9018 50.1924 81.4606 50.6367 81.9479 51.1669L80.8516 52.3276C80.2641 51.6541 79.5404 51.1382 78.6806 50.78C77.8208 50.4074 76.9251 50.2211 75.9937 50.2211C75.1195 50.2211 74.3099 50.3787 73.5647 50.694C72.8195 51.0092 72.1675 51.4535 71.6086 52.0267C71.0641 52.5856 70.6342 53.2447 70.3189 54.0042C70.018 54.7494 69.8675 55.5662 69.8675 56.4547C69.8675 57.3288 70.018 58.1457 70.3189 58.9052C70.6342 59.6647 71.0713 60.331 71.6301 60.9042C72.189 61.4631 72.841 61.9002 73.5862 62.2154C74.3457 62.5307 75.1625 62.6883 76.0367 62.6883C76.9681 62.6883 77.8566 62.5092 78.7021 62.1509C79.5476 61.7783 80.2569 61.2696 80.8301 60.6248L81.9049 61.7425C81.4033 62.2584 80.8373 62.7026 80.2067 63.0752C79.5905 63.4478 78.9242 63.7344 78.2077 63.935C77.4912 64.1213 76.7532 64.2145 75.9937 64.2145ZM95.2326 64.2145C94.1435 64.2145 93.126 64.021 92.1803 63.6341C91.2488 63.2329 90.4248 62.6811 89.7083 61.979C89.0061 61.2625 88.4544 60.4385 88.0532 59.507C87.6663 58.5612 87.4728 57.5438 87.4728 56.4547C87.4728 55.3656 87.6663 54.3553 88.0532 53.4239C88.4544 52.4781 89.0061 51.6541 89.7083 50.9519C90.4248 50.2354 91.2488 49.6837 92.1803 49.2968C93.126 48.8955 94.1435 48.6949 95.2326 48.6949C96.3073 48.6949 97.3105 48.8955 98.2419 49.2968C99.1877 49.6837 100.012 50.2354 100.714 50.9519C101.43 51.6541 101.982 52.4781 102.369 53.4239C102.77 54.3553 102.971 55.3656 102.971 56.4547C102.971 57.5438 102.77 58.5612 102.369 59.507C101.982 60.4385 101.43 61.2625 100.714 61.979C100.012 62.6811 99.1877 63.2329 98.2419 63.6341C97.3105 64.021 96.3073 64.2145 95.2326 64.2145ZM95.2326 62.6883C96.0924 62.6883 96.8877 62.5307 97.6185 62.2154C98.3494 61.9002 98.9871 61.4631 99.5316 60.9042C100.091 60.331 100.52 59.6647 100.821 58.9052C101.137 58.1457 101.294 57.3288 101.294 56.4547C101.294 55.5662 101.137 54.7494 100.821 54.0042C100.52 53.2447 100.091 52.5856 99.5316 52.0267C98.9871 51.4535 98.3494 51.0092 97.6185 50.694C96.8877 50.3787 96.0924 50.2211 95.2326 50.2211C94.3728 50.2211 93.5703 50.3787 92.8251 50.694C92.0943 51.0092 91.4494 51.4535 90.8905 52.0267C90.346 52.5856 89.9161 53.2447 89.6008 54.0042C89.2999 54.7494 89.1494 55.5591 89.1494 56.4332C89.1494 57.3217 89.2999 58.1457 89.6008 58.9052C89.9161 59.6647 90.346 60.331 90.8905 60.9042C91.4494 61.4631 92.0943 61.9002 92.8251 62.2154C93.5703 62.5307 94.3728 62.6883 95.2326 62.6883ZM109.647 63.978V48.9314H111.969L117.106 59.6145L122.222 48.9314H124.543V63.978H122.974V50.8229L117.084 62.9033L111.195 50.8444V63.978H109.647ZM131.931 63.978V48.9314H138.465C139.454 48.9314 140.307 49.1105 141.023 49.4687C141.754 49.827 142.32 50.3357 142.721 50.9949C143.123 51.6398 143.323 52.3993 143.323 53.2734C143.323 54.1475 143.123 54.9142 142.721 55.5734C142.32 56.2182 141.754 56.727 141.023 57.0996C140.292 57.4578 139.44 57.6369 138.465 57.6369H133.586V63.978H131.931ZM133.586 56.1968H138.336C139.354 56.1968 140.163 55.9388 140.765 55.4229C141.367 54.8927 141.668 54.1834 141.668 53.2949C141.668 52.4064 141.367 51.7043 140.765 51.1884C140.163 50.6725 139.354 50.4145 138.336 50.4145H133.586V56.1968ZM146.201 63.978L152.435 48.9314H154.434L160.624 63.978H158.819L156.927 59.2491H149.834L147.921 63.978H146.201ZM150.414 57.8304H156.347L153.38 50.4575L150.414 57.8304ZM166.443 63.978V48.9314H168.098L177.148 61.1407V48.9314H178.717V63.978H177.255L168.012 51.4463V63.978H166.443ZM190.488 63.978V57.8519L184.512 48.9314H186.447L191.369 56.3902L196.27 48.9314H198.14L192.143 57.9164V63.978H190.488Z" fill="white"/>
<g clip-path="url(#clip0_458_272)">
<path fill-rule="evenodd" clip-rule="evenodd" d="M7.23751 9.36646H51.8429C55.8401 9.36646 59.0804 12.6064 59.0804 16.6032V61.2035C59.0804 65.2002 55.8401 68.4402 51.8429 68.4402H39.8004L48.1463 63.0023L48.2335 62.9605C51.1515 61.4786 53.3884 58.9323 54.4819 55.848C55.5753 52.7637 55.4417 49.3772 54.1086 46.3886C53.3573 44.7059 52.2501 43.206 50.8634 41.9923C49.4767 40.7785 47.8433 39.8798 46.0758 39.3579C44.3083 38.836 42.4487 38.7034 40.625 38.9692C38.8013 39.2349 37.0569 39.8928 35.5119 40.8975L16.4864 53.2875C15.5259 53.6935 14.4492 53.7299 13.4635 53.3896C12.4777 53.0494 11.6527 52.3566 11.1472 51.4446C10.6417 50.5327 10.4915 49.4659 10.7254 48.4498C10.9592 47.4337 11.5608 46.54 12.4141 45.9408L30.0012 34.4539L42.2788 26.4734C42.8052 26.3133 43.364 26.2924 43.9009 26.4127C44.4377 26.5331 44.9341 26.7907 45.3416 27.1603L47.5922 30.6174L50.6777 15.9808L36.0546 12.8918L38.3735 16.4513C38.5061 16.9597 38.5107 17.493 38.3869 18.0035C38.263 18.5141 38.0146 18.986 37.6638 19.3771L22.2893 29.3765C20.5401 30.5144 18.7558 31.6239 16.9682 32.7354C13.6052 34.8266 10.231 36.9247 7.05906 39.2316C5.88811 40.1109 4.87877 41.1869 4.07601 42.4116C2.46063 44.8567 1.73717 47.7837 2.02742 50.6997C2.31767 53.6158 3.60391 56.3428 5.66958 58.4216C7.73525 60.5004 10.4542 61.804 13.3686 62.1131C16.283 62.4221 19.2149 61.7176 21.6707 60.1182L40.6848 47.7281C41.6457 47.3192 42.7241 47.2807 43.7117 47.62C44.6993 47.9593 45.5262 48.6524 46.0328 49.5655C46.5394 50.4786 46.6898 51.547 46.4549 52.5644C46.22 53.5818 45.6165 54.4762 44.7609 55.0749L27.1738 66.5618L24.2901 68.4402H7.23751C3.24034 68.4402 0 65.2002 0 61.2035V16.6032C0 12.6064 3.24034 9.36646 7.23751 9.36646ZM43.4022 25.76L44.1195 25.3046L44.1157 25.297L43.4022 25.76ZM38.2369 18.9749L39.4704 18.1704L38.0813 19.0735L38.2369 18.9749Z" fill="white"/>
</g>
<defs>
<clipPath id="clip0_458_272">
<rect width="59.0804" height="73.4902" fill="white" transform="translate(0 9.36646)"/>
</clipPath>
</defs>
</svg>
